<svg xmlns="http://www.w3.org/2000/svg" width="700" height="184" viewBox="0 0 700 184" font-family="system-ui, -apple-system, 'Segoe UI', sans-serif">
<rect width="700" height="184" fill="#fcfcfb"/>
<text x="16.0" y="24.0" font-size="13" fill="#0b0b0b" text-anchor="start" font-weight="600">§8d very-heavy noise (0.5/0.5): outcome composition, 2 reps pooled</text>
<text x="16.0" y="41.0" font-size="11" fill="#52514e" text-anchor="start" font-weight="normal">Out of 120 ticket-attempts per arm (2 reps x 60 tickets); severity-ordered, light to dark</text>
<text x="122.0" y="77.0" font-size="11" fill="#52514e" text-anchor="end" font-weight="normal">git_scheduled</text>
<path d="M 130.0 62.0 L 580.4 62.0 Q 580.4 62.0 580.4 62.0 L 580.4 84.0 Q 580.4 84.0 580.4 84.0 L 130.0 84.0 Z" fill="#86b6ef"/>
<text x="355.2" y="77.0" font-size="11" fill="#0b0b0b" text-anchor="middle" font-weight="normal">98</text>
<path d="M 582.4 62.0 L 677.4 62.0 Q 677.4 62.0 677.4 62.0 L 677.4 84.0 Q 677.4 84.0 677.4 84.0 L 582.4 84.0 Z" fill="#1c5cab"/>
<text x="629.9" y="77.0" font-size="11" fill="#ffffff" text-anchor="middle" font-weight="normal">21</text>
<path d="M 679.4 62.0 L 680.7 62.0 Q 682.0 62.0 682.0 63.3 L 682.0 82.7 Q 682.0 84.0 680.7 84.0 L 679.4 84.0 Z" fill="#0d366b"/>
<text x="122.0" y="121.0" font-size="11" fill="#52514e" text-anchor="end" font-weight="normal">nool_gated</text>
<path d="M 130.0 106.0 L 617.4 106.0 Q 617.4 106.0 617.4 106.0 L 617.4 128.0 Q 617.4 128.0 617.4 128.0 L 130.0 128.0 Z" fill="#86b6ef"/>
<text x="373.7" y="121.0" font-size="11" fill="#0b0b0b" text-anchor="middle" font-weight="normal">106</text>
<path d="M 619.4 106.0 L 672.8 106.0 Q 672.8 106.0 672.8 106.0 L 672.8 128.0 Q 672.8 128.0 672.8 128.0 L 619.4 128.0 Z" fill="#1c5cab"/>
<text x="646.1" y="121.0" font-size="11" fill="#ffffff" text-anchor="middle" font-weight="normal">12</text>
<path d="M 674.8 106.0 L 678.4 106.0 Q 682.0 106.0 682.0 109.6 L 682.0 124.4 Q 682.0 128.0 678.4 128.0 L 674.8 128.0 Z" fill="#0d366b"/>
<rect x="16.0" y="163.0" width="10" height="10" rx="2" fill="#86b6ef"/>
<text x="31.0" y="172.0" font-size="11" fill="#52514e" text-anchor="start" font-weight="normal">Accepted</text>
<rect x="100.0" y="163.0" width="10" height="10" rx="2" fill="#1c5cab"/>
<text x="115.0" y="172.0" font-size="11" fill="#52514e" text-anchor="start" font-weight="normal">Merge conflict</text>
<rect x="222.4" y="163.0" width="10" height="10" rx="2" fill="#0d366b"/>
<text x="237.4" y="172.0" font-size="11" fill="#52514e" text-anchor="start" font-weight="normal">Other (landed, not accepted)</text>
</svg>
